<mxfile host="app.diagrams.net" modified="2024-03-17T15:42:15.895Z" agent="Mozilla/5.0 (Windows NT 10.0; Win64; x64; rv:123.0) Gecko/20100101 Firefox/123.0" etag="RGkQsEI0de4wTBrXH-Ao" version="24.0.2" type="github">
  <diagram name="第 1 页" id="f0Q-XP88D9cHkuUK9u9R">
    <mxGraphModel dx="1221" dy="733" grid="0" gridSize="10" guides="1" tooltips="1" connect="1" arrows="1" fold="1" page="1" pageScale="1" pageWidth="1027" pageHeight="412" math="1" shadow="0">
      <root>
        <mxCell id="0" />
        <mxCell id="1" parent="0" />
        <mxCell id="7sGQZ9yojEYU0a86g81N-2" value="&lt;font style=&quot;font-size: 18px;&quot;&gt;&lt;i&gt;&lt;font style=&quot;font-size: 24px;&quot; face=&quot;Times New Roman&quot;&gt;α&lt;/font&gt;&lt;/i&gt;&lt;/font&gt;&lt;font size=&quot;1&quot;&gt;&lt;i&gt;&lt;sub&gt;&lt;font style=&quot;font-size: 18px;&quot; face=&quot;Times New Roman&quot;&gt;ij&lt;/font&gt;&lt;/sub&gt;&lt;/i&gt;&lt;/font&gt;" style="ellipse;whiteSpace=wrap;html=1;aspect=fixed;fontFamily=宋体;fontSource=https%3A%2F%2Ffonts.googleapis.com%2Fcss%3Ffamily%3D%25E5%25AE%258B%25E4%25BD%2593;fillColor=#f4b183;strokeColor=#d79b00;" vertex="1" parent="1">
          <mxGeometry x="272" y="3" width="49" height="49" as="geometry" />
        </mxCell>
        <mxCell id="7sGQZ9yojEYU0a86g81N-27" style="edgeStyle=none;rounded=0;orthogonalLoop=1;jettySize=auto;html=1;exitX=0.5;exitY=0;exitDx=0;exitDy=0;" edge="1" parent="1" source="7sGQZ9yojEYU0a86g81N-3" target="7sGQZ9yojEYU0a86g81N-2">
          <mxGeometry relative="1" as="geometry" />
        </mxCell>
        <mxCell id="7sGQZ9yojEYU0a86g81N-3" value="" style="ellipse;whiteSpace=wrap;html=1;aspect=fixed;fontFamily=宋体;fontSource=https%3A%2F%2Ffonts.googleapis.com%2Fcss%3Ffamily%3D%25E5%25AE%258B%25E4%25BD%2593;fillColor=#bfbfbf;" vertex="1" parent="1">
          <mxGeometry x="266" y="160" width="62" height="62" as="geometry" />
        </mxCell>
        <mxCell id="7sGQZ9yojEYU0a86g81N-13" style="edgeStyle=none;rounded=0;orthogonalLoop=1;jettySize=auto;html=1;exitX=1;exitY=0;exitDx=0;exitDy=0;entryX=0;entryY=1;entryDx=0;entryDy=0;" edge="1" parent="1" source="7sGQZ9yojEYU0a86g81N-4" target="7sGQZ9yojEYU0a86g81N-3">
          <mxGeometry relative="1" as="geometry">
            <mxPoint x="273" y="212" as="targetPoint" />
          </mxGeometry>
        </mxCell>
        <mxCell id="7sGQZ9yojEYU0a86g81N-4" value="" style="ellipse;whiteSpace=wrap;html=1;aspect=fixed;fontFamily=宋体;fontSource=https%3A%2F%2Ffonts.googleapis.com%2Fcss%3Ffamily%3D%25E5%25AE%258B%25E4%25BD%2593;fillColor=#b5c6e7;" vertex="1" parent="1">
          <mxGeometry x="159" y="319" width="40" height="40" as="geometry" />
        </mxCell>
        <mxCell id="7sGQZ9yojEYU0a86g81N-5" value="" style="ellipse;whiteSpace=wrap;html=1;aspect=fixed;fontFamily=宋体;fontSource=https%3A%2F%2Ffonts.googleapis.com%2Fcss%3Ffamily%3D%25E5%25AE%258B%25E4%25BD%2593;fillColor=#fee599;" vertex="1" parent="1">
          <mxGeometry x="207" y="318" width="40" height="40" as="geometry" />
        </mxCell>
        <mxCell id="7sGQZ9yojEYU0a86g81N-15" style="edgeStyle=none;rounded=0;orthogonalLoop=1;jettySize=auto;html=1;exitX=0.5;exitY=0;exitDx=0;exitDy=0;" edge="1" parent="1" source="7sGQZ9yojEYU0a86g81N-6" target="7sGQZ9yojEYU0a86g81N-3">
          <mxGeometry relative="1" as="geometry" />
        </mxCell>
        <mxCell id="7sGQZ9yojEYU0a86g81N-6" value="" style="ellipse;whiteSpace=wrap;html=1;aspect=fixed;fontFamily=宋体;fontSource=https%3A%2F%2Ffonts.googleapis.com%2Fcss%3Ffamily%3D%25E5%25AE%258B%25E4%25BD%2593;fillColor=#f7cbac;" vertex="1" parent="1">
          <mxGeometry x="255" y="318" width="40" height="40" as="geometry" />
        </mxCell>
        <mxCell id="7sGQZ9yojEYU0a86g81N-12" style="edgeStyle=none;rounded=0;orthogonalLoop=1;jettySize=auto;html=1;exitX=1;exitY=0;exitDx=0;exitDy=0;" edge="1" parent="1" source="7sGQZ9yojEYU0a86g81N-7">
          <mxGeometry relative="1" as="geometry">
            <mxPoint x="268" y="204" as="targetPoint" />
          </mxGeometry>
        </mxCell>
        <mxCell id="7sGQZ9yojEYU0a86g81N-7" value="" style="ellipse;whiteSpace=wrap;html=1;aspect=fixed;fontFamily=宋体;fontSource=https%3A%2F%2Ffonts.googleapis.com%2Fcss%3Ffamily%3D%25E5%25AE%258B%25E4%25BD%2593;fillColor=#c5e0b3;" vertex="1" parent="1">
          <mxGeometry x="111" y="320" width="40" height="40" as="geometry" />
        </mxCell>
        <mxCell id="7sGQZ9yojEYU0a86g81N-8" value="" style="shape=curlyBracket;whiteSpace=wrap;html=1;rounded=1;labelPosition=left;verticalLabelPosition=middle;align=right;verticalAlign=middle;rotation=-90;" vertex="1" parent="1">
          <mxGeometry x="194.38" y="292.13" width="20" height="163.75" as="geometry" />
        </mxCell>
        <mxCell id="7sGQZ9yojEYU0a86g81N-14" style="edgeStyle=none;rounded=0;orthogonalLoop=1;jettySize=auto;html=1;exitX=1;exitY=0;exitDx=0;exitDy=0;" edge="1" parent="1" source="7sGQZ9yojEYU0a86g81N-5">
          <mxGeometry relative="1" as="geometry">
            <mxPoint x="281" y="217" as="targetPoint" />
          </mxGeometry>
        </mxCell>
        <mxCell id="7sGQZ9yojEYU0a86g81N-22" style="edgeStyle=none;rounded=0;orthogonalLoop=1;jettySize=auto;html=1;exitX=0;exitY=0;exitDx=0;exitDy=0;" edge="1" parent="1" source="7sGQZ9yojEYU0a86g81N-16">
          <mxGeometry relative="1" as="geometry">
            <mxPoint x="312" y="218" as="targetPoint" />
          </mxGeometry>
        </mxCell>
        <mxCell id="7sGQZ9yojEYU0a86g81N-16" value="" style="ellipse;whiteSpace=wrap;html=1;aspect=fixed;fontFamily=宋体;fontSource=https%3A%2F%2Ffonts.googleapis.com%2Fcss%3Ffamily%3D%25E5%25AE%258B%25E4%25BD%2593;fillColor=#c5e0b3;" vertex="1" parent="1">
          <mxGeometry x="363" y="319" width="40" height="40" as="geometry" />
        </mxCell>
        <mxCell id="7sGQZ9yojEYU0a86g81N-23" style="edgeStyle=none;rounded=0;orthogonalLoop=1;jettySize=auto;html=1;exitX=0;exitY=0;exitDx=0;exitDy=0;entryX=1;entryY=1;entryDx=0;entryDy=0;" edge="1" parent="1" source="7sGQZ9yojEYU0a86g81N-17" target="7sGQZ9yojEYU0a86g81N-3">
          <mxGeometry relative="1" as="geometry" />
        </mxCell>
        <mxCell id="7sGQZ9yojEYU0a86g81N-17" value="" style="ellipse;whiteSpace=wrap;html=1;aspect=fixed;fontFamily=宋体;fontSource=https%3A%2F%2Ffonts.googleapis.com%2Fcss%3Ffamily%3D%25E5%25AE%258B%25E4%25BD%2593;fillColor=#f7cbac;" vertex="1" parent="1">
          <mxGeometry x="411" y="318" width="40" height="40" as="geometry" />
        </mxCell>
        <mxCell id="7sGQZ9yojEYU0a86g81N-18" value="" style="ellipse;whiteSpace=wrap;html=1;aspect=fixed;fontFamily=宋体;fontSource=https%3A%2F%2Ffonts.googleapis.com%2Fcss%3Ffamily%3D%25E5%25AE%258B%25E4%25BD%2593;fillColor=#b5c6e7;" vertex="1" parent="1">
          <mxGeometry x="459" y="318" width="40" height="40" as="geometry" />
        </mxCell>
        <mxCell id="7sGQZ9yojEYU0a86g81N-19" value="" style="ellipse;whiteSpace=wrap;html=1;aspect=fixed;fontFamily=宋体;fontSource=https%3A%2F%2Ffonts.googleapis.com%2Fcss%3Ffamily%3D%25E5%25AE%258B%25E4%25BD%2593;fillColor=#fee599;" vertex="1" parent="1">
          <mxGeometry x="315" y="320" width="40" height="40" as="geometry" />
        </mxCell>
        <mxCell id="7sGQZ9yojEYU0a86g81N-20" value="" style="shape=curlyBracket;whiteSpace=wrap;html=1;rounded=1;labelPosition=left;verticalLabelPosition=middle;align=right;verticalAlign=middle;rotation=-90;" vertex="1" parent="1">
          <mxGeometry x="398.38" y="292.13" width="20" height="163.75" as="geometry" />
        </mxCell>
        <mxCell id="7sGQZ9yojEYU0a86g81N-21" style="edgeStyle=none;rounded=0;orthogonalLoop=1;jettySize=auto;html=1;exitX=0;exitY=0;exitDx=0;exitDy=0;entryX=0.613;entryY=1;entryDx=0;entryDy=0;entryPerimeter=0;" edge="1" parent="1" source="7sGQZ9yojEYU0a86g81N-19" target="7sGQZ9yojEYU0a86g81N-3">
          <mxGeometry relative="1" as="geometry" />
        </mxCell>
        <mxCell id="7sGQZ9yojEYU0a86g81N-24" style="edgeStyle=none;rounded=0;orthogonalLoop=1;jettySize=auto;html=1;exitX=0;exitY=0;exitDx=0;exitDy=0;entryX=0.952;entryY=0.742;entryDx=0;entryDy=0;entryPerimeter=0;" edge="1" parent="1" source="7sGQZ9yojEYU0a86g81N-18" target="7sGQZ9yojEYU0a86g81N-3">
          <mxGeometry relative="1" as="geometry" />
        </mxCell>
        <mxCell id="7sGQZ9yojEYU0a86g81N-28" value="&lt;font face=&quot;Times New Roman&quot; style=&quot;font-size: 24px;&quot;&gt;softmax&lt;/font&gt;" style="text;strokeColor=none;align=center;fillColor=none;html=1;verticalAlign=middle;whiteSpace=wrap;rounded=0;rotation=-90;" vertex="1" parent="1">
          <mxGeometry x="282" y="93" width="60" height="30" as="geometry" />
        </mxCell>
        <mxCell id="7sGQZ9yojEYU0a86g81N-56" style="edgeStyle=none;rounded=0;orthogonalLoop=1;jettySize=auto;html=1;exitX=1;exitY=0.5;exitDx=0;exitDy=0;entryX=0;entryY=0.5;entryDx=0;entryDy=0;" edge="1" parent="1" source="7sGQZ9yojEYU0a86g81N-35" target="7sGQZ9yojEYU0a86g81N-37">
          <mxGeometry relative="1" as="geometry" />
        </mxCell>
        <mxCell id="7sGQZ9yojEYU0a86g81N-35" value="&lt;font face=&quot;Times New Roman&quot; style=&quot;font-size: 24px;&quot;&gt;&lt;i style=&quot;font-size: 24px;&quot;&gt;$$g_{3}$$&lt;/i&gt;&lt;/font&gt;" style="ellipse;whiteSpace=wrap;html=1;aspect=fixed;fontFamily=宋体;fontSource=https%3A%2F%2Ffonts.googleapis.com%2Fcss%3Ffamily%3D%25E5%25AE%258B%25E4%25BD%2593;fontSize=24;fillColor=#b5c6e7;" vertex="1" parent="1">
          <mxGeometry x="553" y="176.5" width="49" height="49" as="geometry" />
        </mxCell>
        <mxCell id="7sGQZ9yojEYU0a86g81N-57" style="edgeStyle=none;rounded=0;orthogonalLoop=1;jettySize=auto;html=1;exitX=1;exitY=0.5;exitDx=0;exitDy=0;entryX=0;entryY=0.5;entryDx=0;entryDy=0;" edge="1" parent="1" source="7sGQZ9yojEYU0a86g81N-37" target="7sGQZ9yojEYU0a86g81N-50">
          <mxGeometry relative="1" as="geometry" />
        </mxCell>
        <mxCell id="7sGQZ9yojEYU0a86g81N-37" value="&lt;font face=&quot;Times New Roman&quot; style=&quot;font-size: 24px;&quot;&gt;&lt;svg style=&quot;vertical-align: -0.559ex; font-size: 24px;&quot; xmlns=&quot;http://www.w3.org/2000/svg&quot; width=&quot;2.067ex&quot; height=&quot;2.389ex&quot; role=&quot;img&quot; viewBox=&quot;0 -809 913.6 1056&quot; xmlns:xlink=&quot;http://www.w3.org/1999/xlink&quot;&gt;&lt;defs style=&quot;font-size: 24px;&quot;&gt;&lt;path id=&quot;MJX-13-TEX-I-1D454&quot; d=&quot;M311 43Q296 30 267 15T206 0Q143 0 105 45T66 160Q66 265 143 353T314 442Q361 442 401 394L404 398Q406 401 409 404T418 412T431 419T447 422Q461 422 470 413T480 394Q480 379 423 152T363 -80Q345 -134 286 -169T151 -205Q10 -205 10 -137Q10 -111 28 -91T74 -71Q89 -71 102 -80T116 -111Q116 -121 114 -130T107 -144T99 -154T92 -162L90 -164H91Q101 -167 151 -167Q189 -167 211 -155Q234 -144 254 -122T282 -75Q288 -56 298 -13Q311 35 311 43ZM384 328L380 339Q377 350 375 354T369 368T359 382T346 393T328 402T306 405Q262 405 221 352Q191 313 171 233T151 117Q151 38 213 38Q269 38 323 108L331 118L384 328Z&quot; style=&quot;font-size: 24px;&quot;&gt;&lt;/path&gt;&lt;path id=&quot;MJX-13-TEX-V-2032&quot; d=&quot;M79 43Q73 43 52 49T30 61Q30 68 85 293T146 528Q161 560 198 560Q218 560 240 545T262 501Q262 496 260 486Q259 479 173 263T84 45T79 43Z&quot; style=&quot;font-size: 24px;&quot;&gt;&lt;/path&gt;&lt;path id=&quot;MJX-13-TEX-N-31&quot; d=&quot;M213 578L200 573Q186 568 160 563T102 556H83V602H102Q149 604 189 617T245 641T273 663Q275 666 285 666Q294 666 302 660V361L303 61Q310 54 315 52T339 48T401 46H427V0H416Q395 3 257 3Q121 3 100 0H88V46H114Q136 46 152 46T177 47T193 50T201 52T207 57T213 61V578Z&quot; style=&quot;font-size: 24px;&quot;&gt;&lt;/path&gt;&lt;/defs&gt;&lt;g stroke=&quot;currentColor&quot; fill=&quot;currentColor&quot; stroke-width=&quot;0&quot; transform=&quot;scale(1,-1)&quot; style=&quot;font-size: 24px;&quot;&gt;&lt;g data-mml-node=&quot;math&quot; style=&quot;font-size: 24px;&quot;&gt;&lt;g data-mml-node=&quot;msubsup&quot; style=&quot;font-size: 24px;&quot;&gt;&lt;g data-mml-node=&quot;mi&quot; style=&quot;font-size: 24px;&quot;&gt;&lt;use data-c=&quot;1D454&quot; xlink:href=&quot;#MJX-13-TEX-I-1D454&quot; style=&quot;font-size: 24px;&quot;&gt;&lt;/use&gt;&lt;/g&gt;&lt;g data-mml-node=&quot;TeXAtom&quot; transform=&quot;translate(510,413) scale(0.707)&quot; data-mjx-texclass=&quot;ORD&quot; style=&quot;font-size: 24px;&quot;&gt;&lt;g data-mml-node=&quot;mi&quot; style=&quot;font-size: 24px;&quot;&gt;&lt;use data-c=&quot;2032&quot; xlink:href=&quot;#MJX-13-TEX-V-2032&quot; style=&quot;font-size: 24px;&quot;&gt;&lt;/use&gt;&lt;/g&gt;&lt;/g&gt;&lt;g data-mml-node=&quot;TeXAtom&quot; transform=&quot;translate(510,-247) scale(0.707)&quot; data-mjx-texclass=&quot;ORD&quot; style=&quot;font-size: 24px;&quot;&gt;&lt;g data-mml-node=&quot;mn&quot; style=&quot;font-size: 24px;&quot;&gt;&lt;use data-c=&quot;31&quot; xlink:href=&quot;#MJX-13-TEX-N-31&quot; style=&quot;font-size: 24px;&quot;&gt;&lt;/use&gt;&lt;/g&gt;&lt;/g&gt;&lt;/g&gt;&lt;/g&gt;&lt;/g&gt;&lt;/svg&gt;&lt;/font&gt;" style="ellipse;whiteSpace=wrap;html=1;aspect=fixed;fontFamily=宋体;fontSource=https%3A%2F%2Ffonts.googleapis.com%2Fcss%3Ffamily%3D%25E5%25AE%258B%25E4%25BD%2593;fontSize=24;fillColor=#f7cbac;" vertex="1" parent="1">
          <mxGeometry x="726.5" y="176.5" width="49" height="49" as="geometry" />
        </mxCell>
        <mxCell id="7sGQZ9yojEYU0a86g81N-61" style="edgeStyle=none;rounded=0;orthogonalLoop=1;jettySize=auto;html=1;entryX=0;entryY=1;entryDx=0;entryDy=0;" edge="1" parent="1" source="7sGQZ9yojEYU0a86g81N-46" target="7sGQZ9yojEYU0a86g81N-37">
          <mxGeometry relative="1" as="geometry" />
        </mxCell>
        <mxCell id="7sGQZ9yojEYU0a86g81N-46" value="&lt;font face=&quot;Times New Roman&quot; style=&quot;font-size: 24px;&quot;&gt;&lt;i style=&quot;font-size: 24px;&quot;&gt;$$g_{4}$$&lt;/i&gt;&lt;/font&gt;" style="ellipse;whiteSpace=wrap;html=1;aspect=fixed;fontFamily=宋体;fontSource=https%3A%2F%2Ffonts.googleapis.com%2Fcss%3Ffamily%3D%25E5%25AE%258B%25E4%25BD%2593;fontSize=24;fillColor=#c5e0b3;" vertex="1" parent="1">
          <mxGeometry x="605" y="296" width="49" height="49" as="geometry" />
        </mxCell>
        <mxCell id="7sGQZ9yojEYU0a86g81N-60" style="edgeStyle=none;rounded=0;orthogonalLoop=1;jettySize=auto;html=1;exitX=1;exitY=1;exitDx=0;exitDy=0;entryX=0;entryY=0;entryDx=0;entryDy=0;" edge="1" parent="1" source="7sGQZ9yojEYU0a86g81N-49" target="7sGQZ9yojEYU0a86g81N-37">
          <mxGeometry relative="1" as="geometry" />
        </mxCell>
        <mxCell id="7sGQZ9yojEYU0a86g81N-49" value="&lt;font face=&quot;Times New Roman&quot; style=&quot;font-size: 24px;&quot;&gt;&lt;i style=&quot;font-size: 24px;&quot;&gt;$$g_{2}$$&lt;/i&gt;&lt;/font&gt;" style="ellipse;whiteSpace=wrap;html=1;aspect=fixed;fontFamily=宋体;fontSource=https%3A%2F%2Ffonts.googleapis.com%2Fcss%3Ffamily%3D%25E5%25AE%258B%25E4%25BD%2593;fontSize=24;fillColor=#fee599;" vertex="1" parent="1">
          <mxGeometry x="608" y="54" width="49" height="49" as="geometry" />
        </mxCell>
        <mxCell id="7sGQZ9yojEYU0a86g81N-50" value="&lt;font style=&quot;font-size: 24px;&quot; face=&quot;Times New Roman&quot;&gt;&lt;i&gt;g&lt;/i&gt;&lt;sub&gt;1&lt;/sub&gt;&lt;/font&gt;" style="ellipse;whiteSpace=wrap;html=1;aspect=fixed;fontFamily=宋体;fontSource=https%3A%2F%2Ffonts.googleapis.com%2Fcss%3Ffamily%3D%25E5%25AE%258B%25E4%25BD%2593;fillColor=#ffcad0;" vertex="1" parent="1">
          <mxGeometry x="900" y="175" width="49" height="49" as="geometry" />
        </mxCell>
        <mxCell id="7sGQZ9yojEYU0a86g81N-55" value="&lt;font face=&quot;Times New Roman&quot; style=&quot;font-size: 24px;&quot;&gt;$${g}_{1}^{\prime \prime}$$&lt;/font&gt;" style="ellipse;whiteSpace=wrap;html=1;aspect=fixed;fontFamily=宋体;fontSource=https%3A%2F%2Ffonts.googleapis.com%2Fcss%3Ffamily%3D%25E5%25AE%258B%25E4%25BD%2593;fontSize=24;fillColor=#e1d5e7;strokeColor=#9673a6;" vertex="1" parent="1">
          <mxGeometry x="809" y="51" width="49" height="49" as="geometry" />
        </mxCell>
        <mxCell id="7sGQZ9yojEYU0a86g81N-58" style="edgeStyle=none;rounded=0;orthogonalLoop=1;jettySize=auto;html=1;entryX=0.347;entryY=1;entryDx=0;entryDy=0;entryPerimeter=0;" edge="1" parent="1" source="7sGQZ9yojEYU0a86g81N-37" target="7sGQZ9yojEYU0a86g81N-55">
          <mxGeometry relative="1" as="geometry" />
        </mxCell>
        <mxCell id="7sGQZ9yojEYU0a86g81N-59" style="edgeStyle=none;rounded=0;orthogonalLoop=1;jettySize=auto;html=1;exitX=0;exitY=0;exitDx=0;exitDy=0;entryX=0.714;entryY=0.959;entryDx=0;entryDy=0;entryPerimeter=0;" edge="1" parent="1" source="7sGQZ9yojEYU0a86g81N-50" target="7sGQZ9yojEYU0a86g81N-55">
          <mxGeometry relative="1" as="geometry" />
        </mxCell>
        <mxCell id="7sGQZ9yojEYU0a86g81N-67" value="&lt;font style=&quot;font-size: 18px;&quot;&gt;&lt;i&gt;&lt;font style=&quot;font-size: 24px;&quot; face=&quot;Times New Roman&quot;&gt;α&lt;/font&gt;&lt;/i&gt;&lt;/font&gt;&lt;font size=&quot;1&quot;&gt;&lt;i&gt;&lt;font face=&quot;Times New Roman&quot;&gt;&lt;sub style=&quot;font-size: 15px;&quot;&gt;41&lt;/sub&gt;&lt;/font&gt;&lt;/i&gt;&lt;/font&gt;" style="text;strokeColor=none;align=center;fillColor=none;html=1;verticalAlign=middle;whiteSpace=wrap;rounded=0;" vertex="1" parent="1">
          <mxGeometry x="678" y="253" width="60" height="30" as="geometry" />
        </mxCell>
        <mxCell id="7sGQZ9yojEYU0a86g81N-68" value="&lt;font style=&quot;font-size: 18px;&quot;&gt;&lt;i&gt;&lt;font style=&quot;font-size: 24px;&quot; face=&quot;Times New Roman&quot;&gt;α&lt;/font&gt;&lt;/i&gt;&lt;/font&gt;&lt;font size=&quot;1&quot;&gt;&lt;i&gt;&lt;font face=&quot;Times New Roman&quot;&gt;&lt;sub style=&quot;font-size: 15px;&quot;&gt;31&lt;/sub&gt;&lt;/font&gt;&lt;/i&gt;&lt;/font&gt;" style="text;strokeColor=none;align=center;fillColor=none;html=1;verticalAlign=middle;whiteSpace=wrap;rounded=0;" vertex="1" parent="1">
          <mxGeometry x="632" y="168" width="60" height="30" as="geometry" />
        </mxCell>
        <mxCell id="7sGQZ9yojEYU0a86g81N-69" value="&lt;font style=&quot;font-size: 18px;&quot;&gt;&lt;i&gt;&lt;font style=&quot;font-size: 24px;&quot; face=&quot;Times New Roman&quot;&gt;α&lt;/font&gt;&lt;/i&gt;&lt;/font&gt;&lt;font size=&quot;1&quot;&gt;&lt;i&gt;&lt;font face=&quot;Times New Roman&quot;&gt;&lt;sub style=&quot;font-size: 15px;&quot;&gt;21&lt;/sub&gt;&lt;/font&gt;&lt;/i&gt;&lt;/font&gt;" style="text;strokeColor=none;align=center;fillColor=none;html=1;verticalAlign=middle;whiteSpace=wrap;rounded=0;" vertex="1" parent="1">
          <mxGeometry x="669" y="106" width="60" height="30" as="geometry" />
        </mxCell>
        <mxCell id="7sGQZ9yojEYU0a86g81N-70" value="&lt;font face=&quot;Times New Roman&quot; size=&quot;1&quot;&gt;&lt;span style=&quot;font-size: 18px;&quot;&gt;Update&lt;/span&gt;&lt;/font&gt;" style="text;strokeColor=none;align=center;fillColor=none;html=1;verticalAlign=middle;whiteSpace=wrap;rounded=0;" vertex="1" parent="1">
          <mxGeometry x="803.5" y="170" width="60" height="30" as="geometry" />
        </mxCell>
        <mxCell id="7sGQZ9yojEYU0a86g81N-72" value="&lt;font style=&quot;font-size: 18px;&quot;&gt;&lt;i style=&quot;font-size: 18px;&quot;&gt;$${W} {g}_{i}$$&lt;/i&gt;&lt;/font&gt;" style="text;strokeColor=none;align=center;fillColor=none;html=1;verticalAlign=middle;whiteSpace=wrap;rounded=0;fontSize=18;fontFamily=Times New Roman;" vertex="1" parent="1">
          <mxGeometry x="178" y="388" width="60" height="30" as="geometry" />
        </mxCell>
        <mxCell id="7sGQZ9yojEYU0a86g81N-73" value="&lt;font style=&quot;font-size: 18px;&quot;&gt;&lt;i style=&quot;font-size: 18px;&quot;&gt;$${W} {g}_{j}$$&lt;/i&gt;&lt;/font&gt;" style="text;strokeColor=none;align=center;fillColor=none;html=1;verticalAlign=middle;whiteSpace=wrap;rounded=0;fontFamily=Times New Roman;fontSize=18;" vertex="1" parent="1">
          <mxGeometry x="378.38" y="388" width="60" height="30" as="geometry" />
        </mxCell>
      </root>
    </mxGraphModel>
  </diagram>
</mxfile>
